# File created by Blade
# Date/Time:  Tue Jan 27 18:09:18 2015
#---------------------------------------------------------
:version 1.10
:name HOM
:units
  mass 1.0
  length 1.000000
  angle deg
:documentation
     Acclaim Skeleton File
:root
   axis xyz
   order TX TY TZ RX RY RZ
   position 0.000000 0.000000 0.000000
   orientation 0 0 0
:bonedata
   begin
      id 1
      name Spine_dum
      direction 0.000000 1.000000 0.000000
      length 5.195262
      axis 0.0 0.0 0.0 xyz
   end
   begin
      id 2
      name LeftUpLeg_dum
      direction 1.000000 0.000000 0.000000
      length 3.351363
      axis 0.0 0.0 0.0 xyz
   end
   begin
      id 3
      name RightUpLeg_dum
      direction -1.000000 0.000000 0.000000
      length 3.351363
      axis 0.0 0.0 0.0 xyz
   end
   begin
      id 4
      name Spine
      direction 0.000000 1.000000 0.000000
      length 0.000000
      axis 0.0 0.0 0.0 xyz
      dof rx ry rz
   end
   begin
      id 5
      name Spine_dum1
      direction 0.000000 1.000000 0.000000
      length 15.653875
      axis 0.0 0.0 0.0 xyz
   end
   begin
      id 6
      name Spine_dum2
      direction 0.000000 1.000000 0.000000
      length 10.329768
      axis 0.0 0.0 0.0 xyz
   end
   begin
      id 7
      name Spine_dum3
      direction 0.000000 1.000000 0.000000
      length 10.329768
      axis 0.0 0.0 0.0 xyz
   end
   begin
      id 8
      name Head
      direction 0.000000 1.000000 0.000000
      length 4.527550
      axis 0.0 0.0 0.0 xyz
      dof rx ry rz
   end
   begin
      id 9
      name LeftShoulder
      direction 1.000000 0.000000 0.000000
      length 6.996006
      axis 0.0 0.0 -90.0 xyz
      dof rx ry rz
   end
   begin
      id 10
      name LeftArm
      direction 1.000000 0.000000 0.000000
      length 10.209302
      axis 0.0 0.0 -90.0 xyz
      dof rx ry rz
   end
   begin
      id 11
      name LeftForeArm
      direction 1.000000 0.000000 0.000000
      length 8.563163
      axis 0.0 0.0 -90.0 xyz
      dof ry rz rx
   end
   begin
      id 12
      name LeftHand
      direction 0.000000 0.000000 0.000000
      length 0.000000
      axis 0.0 0.0 -90.0 xyz
      dof rx ry rz
   end
   begin
      id 13
      name LeftHand_dum1
      direction 0.000000 0.000000 0.000000
      length 0.000000
      axis 0.0 0.0 -90.0 xyz
   end
   begin
      id 14
      name LeftHand_dum2
      direction 1.000000 0.000000 0.000000
      length 3.937000
      axis 0.0 0.0 -90.0 xyz
   end
   begin
      id 15
      name LeftHandThumb1
      direction 0.000000 0.000000 1.000000
      length 3.937000
      axis 0.0 0.0 -90.0 xyz
      dof rx rz ry
   end
   begin
      id 16
      name RightShoulder
      direction -1.000000 0.000000 0.000000
      length 6.996006
      axis 0.0 0.0 90.0 xyz
      dof rx ry rz
   end
   begin
      id 17
      name RightArm
      direction -1.000000 0.000000 0.000000
      length 10.209302
      axis 0.0 0.0 90.0 xyz
      dof rx ry rz
   end
   begin
      id 18
      name RightForeArm
      direction -1.000000 0.000000 0.000000
      length 8.563163
      axis 0.0 0.0 90.0 xyz
      dof ry rz rx
   end
   begin
      id 19
      name RightHand
      direction 0.000000 0.000000 0.000000
      length 0.000000
      axis 0.0 0.0 90.0 xyz
      dof rx ry rz
   end
   begin
      id 20
      name RightHand_dum1
      direction 0.000000 0.000000 0.000000
      length 0.000000
      axis 0.0 0.0 90.0 xyz
   end
   begin
      id 21
      name RightHand_dum2
      direction -1.000000 0.000000 0.000000
      length 3.937000
      axis 0.0 0.0 90.0 xyz
   end
   begin
      id 22
      name RightHandThumb1
      direction 0.000000 0.000000 1.000000
      length 3.937000
      axis 0.0 0.0 90.0 xyz
      dof rx rz ry
   end
   begin
      id 23
      name LeftUpLeg
      direction 0.000000 -1.000000 0.000000
      length 16.346831
      axis 0.0 0.0 0.0 xyz
      dof rx ry rz
   end
   begin
      id 24
      name LeftLeg
      direction 0.000000 -1.000000 0.000000
      length 13.959795
      axis 0.0 0.0 0.0 xyz
      dof rx ry rz
   end
   begin
      id 25
      name LeftFoot
      direction 0.000000 -0.258819 0.965926
      length 5.165550
      axis 15.0 0.0 0.0 xyz
      dof rx ry rz
   end
   begin
      id 26
      name LeftToeBase
      direction 0.000000 0.000000 1.000000
      length 2.952750
      axis 0.0 0.0 0.0 xyz
      dof rx ry rz
   end
   begin
      id 27
      name RightUpLeg
      direction 0.000000 -1.000000 0.000000
      length 16.346831
      axis 0.0 0.0 0.0 xyz
      dof rx ry rz
   end
   begin
      id 28
      name RightLeg
      direction 0.000000 -1.000000 0.000000
      length 13.959795
      axis 0.0 0.0 0.0 xyz
      dof rx ry rz
   end
   begin
      id 29
      name RightFoot
      direction 0.000000 -0.258819 0.965926
      length 5.165550
      axis 15.0 0.0 0.0 xyz
      dof rx ry rz
   end
   begin
      id 30
      name RightToeBase
      direction 0.000000 0.000000 1.000000
      length 2.952750
      axis 0.0 0.0 0.0 xyz
      dof rx ry rz
   end
:hierarchy
   begin
      root Spine_dum LeftUpLeg_dum RightUpLeg_dum
      Spine_dum Spine
      LeftUpLeg_dum LeftUpLeg
      RightUpLeg_dum RightUpLeg
      Spine Spine_dum1 Spine_dum2 Spine_dum3
      Spine_dum1 Head
      Spine_dum2 LeftShoulder
      Spine_dum3 RightShoulder
      LeftShoulder LeftArm
      LeftArm LeftForeArm
      LeftForeArm LeftHand
      LeftHand LeftHand_dum1 LeftHand_dum2
      LeftHand_dum1 LeftHandThumb1
      RightShoulder RightArm
      RightArm RightForeArm
      RightForeArm RightHand
      RightHand RightHand_dum1 RightHand_dum2
      RightHand_dum1 RightHandThumb1
      LeftUpLeg LeftLeg
      LeftLeg LeftFoot
      LeftFoot LeftToeBase
      RightUpLeg RightLeg
      RightLeg RightFoot
      RightFoot RightToeBase
   end

# File created by Blade
# Date/Time:  Tue Jan 27 18:09:10 2015
# Frame Rate: 120.000 fps
#------------------------------------------------------
:FULLY-SPECIFIED
:DEGREES
385
root -1.183044 31.778218 -5.664020 6.498255 23.205878 6.321146
Spine -7.442149 1.944963 -2.178382
Head 5.136676 -18.772807 8.691642
LeftShoulder -8.614462 16.997234 3.974460
LeftArm 24.507975 38.164058 -70.990712
LeftForeArm -2.903773 0.000000 14.399640
LeftHand -11.001407 0.000000 -3.927604
LeftHandThumb1 -26.253704 0.000000 33.147579
RightShoulder 5.656982 46.005289 -39.345557
RightArm 44.213087 1.116899 111.780707
RightForeArm 20.213877 -0.000000 105.885172
RightHand -11.827783 -0.000000 -4.925550
RightHandThumb1 -24.326973 -0.000000 -32.862282
LeftUpLeg -1.920130 -10.169452 -2.360756
LeftLeg 2.888125 -0.000000 -0.000000
LeftFoot -15.260101 10.288998 -23.505601
LeftToeBase 8.232700 -0.000000 -0.000000
RightUpLeg 6.460192 -13.256799 -5.268275
RightLeg -3.661487 -0.000000 0.000000
RightFoot -19.848926 -20.596860 12.485799
RightToeBase 5.396459 -0.000000 -0.000000
386
root -1.184159 31.777848 -5.662037 6.493057 23.207172 6.316097
Spine -7.437778 1.958136 -2.174531
Head 5.141630 -18.740353 8.683295
LeftShoulder -8.629104 17.014755 3.959972
LeftArm 24.479957 38.092753 -71.025400
LeftForeArm -2.938914 -0.000000 14.405515
LeftHand -10.913328 -0.000000 -3.909748
LeftHandThumb1 -26.253704 0.000000 33.147579
RightShoulder 5.664825 46.000865 -39.333453
RightArm 44.193743 1.072458 111.758455
RightForeArm 20.265007 -0.000000 105.897717
RightHand -11.856706 -0.000000 -4.908034
RightHandThumb1 -24.326973 -0.000000 -32.862282
LeftUpLeg -1.923541 -10.134257 -2.354293
LeftLeg 2.902993 -0.000000 -0.000000
LeftFoot -15.284698 10.222764 -23.623167
LeftToeBase 8.287879 -0.000000 -0.000000
RightUpLeg 6.459764 -13.226413 -5.261544
RightLeg -3.644828 -0.000000 0.000000
RightFoot -19.870267 -20.612784 12.483757
RightToeBase 5.439427 -0.000000 -0.000000
387
root -1.184222 31.777191 -5.659993 6.478114 23.202788 6.323137
Spine -7.421133 1.969812 -2.184372
Head 5.163886 -18.727444 8.674429
LeftShoulder -8.628336 16.997801 3.961448
LeftArm 24.418996 38.051888 -71.075711
LeftForeArm -2.977346 -0.000000 14.413517
LeftHand -10.910550 -0.000000 -3.879397
LeftHandThumb1 -26.253704 0.000000 33.147579
RightShoulder 5.672075 45.951276 -39.324563
RightArm 44.209321 1.005955 111.724850
RightForeArm 20.342793 -0.000000 105.909832
RightHand -11.870893 -0.000000 -5.065793
RightHandThumb1 -24.326973 -0.000000 -32.862282
LeftUpLeg -1.902051 -10.128799 -2.366690
LeftLeg 2.910955 -0.000000 -0.000000
LeftFoot -15.273209 10.259885 -23.492697
LeftToeBase 8.254887 -0.000000 -0.000000
RightUpLeg 6.484446 -13.170292 -5.269945
RightLeg -3.651782 -0.000000 0.000000
RightFoot -19.881504 -20.638180 12.505974
RightToeBase 5.415631 -0.000000 -0.000000
388
root -1.186201 31.776919 -5.657865 6.479872 23.198237 6.311282
Spine -7.429985 1.975640 -2.175402
Head 5.176421 -18.701822 8.661114
LeftShoulder -8.641372 17.002900 3.949758
LeftArm 24.372901 37.983326 -71.117771
LeftForeArm -2.980193 -0.000000 14.432597
LeftHand -10.911848 -0.000000 -3.897459
LeftHandThumb1 -26.253704 0.000000 33.147579
RightShoulder 5.678159 46.133040 -39.299272
RightArm 44.001470 1.007966 111.692392
RightForeArm 20.362054 -0.000000 105.908146
RightHand -11.873962 -0.000000 -4.908476
RightHandThumb1 -24.326973 -0.000000 -32.862282
LeftUpLeg -1.905223 -10.132444 -2.345089
LeftLeg 2.900813 -0.000000 -0.000000
LeftFoot -15.290937 10.213501 -23.645768
LeftToeBase 8.256318 -0.000000 -0.000000
RightUpLeg 6.481222 -13.130669 -5.252512
RightLeg -3.656971 -0.000000 0.000000
RightFoot -19.864518 -20.666750 12.481333
RightToeBase 5.384332 -0.000000 -0.000000
389
root -1.186355 31.776544 -5.656590 6.474776 23.187843 6.320819
Spine -7.421768 1.977297 -2.184276
Head 5.195038 -18.683056 8.640459
LeftShoulder -8.650386 17.012151 3.946420
LeftArm 24.356223 37.953926 -71.131650
LeftForeArm -3.014757 -0.000000 14.438001
LeftHand -10.891261 0.000000 -3.918804
LeftHandThumb1 -26.253704 0.000000 33.147579
RightShoulder 5.688921 46.153543 -39.281176
RightArm 43.949361 0.954691 111.646881
RightForeArm 20.366025 -0.000000 105.914714
RightHand -11.895070 -0.000000 -4.910880
RightHandThumb1 -24.326973 -0.000000 -32.862282
LeftUpLeg -1.894184 -10.119628 -2.360272
LeftLeg 2.912013 -0.000000 -0.000000
LeftFoot -15.319526 10.221614 -23.687665
LeftToeBase 8.313592 -0.000000 -0.000000
RightUpLeg 6.494690 -13.087048 -5.264367
RightLeg -3.662123 -0.000000 0.000000
RightFoot -19.886252 -20.659383 12.521851
RightToeBase 5.410023 -0.000000 -0.000000
390
root -1.189330 31.776109 -5.655408 6.481003 23.170386 6.308456
Spine -7.437915 1.981753 -2.179241
Head 5.220527 -18.666906 8.616642
LeftShoulder -8.656123 17.015174 3.950944
LeftArm 24.336106 37.917743 -71.159930
LeftForeArm -3.040504 -0.000000 14.423333
LeftHand -10.870370 0.000000 -3.921346
LeftHandThumb1 -26.253704 0.000000 33.147579
RightShoulder 5.701999 46.079815 -39.260852
RightArm 43.983771 0.866756 111.600338
RightForeArm 20.357223 -0.000000 105.917826
RightHand -11.821590 -0.000000 -4.919763
RightHandThumb1 -24.326973 -0.000000 -32.862282
LeftUpLeg -1.905445 -10.128868 -2.336670
LeftLeg 2.906650 -0.000000 -0.000000
LeftFoot -15.316092 10.224340 -23.649329
LeftToeBase 8.336020 -0.000000 -0.000000
RightUpLeg 6.490225 -13.035644 -5.243476
RightLeg -3.686304 -0.000000 0.000000
RightFoot -19.870000 -20.701494 12.495212
RightToeBase 5.383522 -0.000000 -0.000000
391
root -1.191173 31.775654 -5.654151 6.471490 23.139416 6.306598
Spine -7.430041 1.974572 -2.180204
Head 5.242088 -18.628281 8.583379
LeftShoulder -8.686014 17.023260 3.940549
LeftArm 24.337037 37.900644 -71.155635
LeftForeArm -3.082555 -0.000000 14.424342
LeftHand -10.827981 -0.000000 -3.992785
LeftHandThumb1 -26.253704 0.000000 33.147579
RightShoulder 5.709787 45.827923 -39.258849
RightArm 44.191824 0.714380 111.570198
RightForeArm 20.308660 0.000000 105.930637
RightHand -11.873352 -0.000000 -4.869686
RightHandThumb1 -24.326973 -0.000000 -32.862282
LeftUpLeg -1.894612 -10.120892 -2.338235
LeftLeg 2.914208 -0.000000 -0.000000
LeftFoot -15.303975 10.273685 -23.534463
LeftToeBase 8.225847 -0.000000 -0.000000
RightUpLeg 6.497987 -12.977231 -5.242182
RightLeg -3.695270 -0.000000 0.000000
RightFoot -19.874501 -20.715037 12.501214
RightToeBase 5.383193 -0.000000 -0.000000
392
root -1.192685 31.775589 -5.652920 6.474759 23.114874 6.313893
Spine -7.432927 1.991215 -2.195769
Head 5.257808 -18.616475 8.551330
LeftShoulder -8.674531 17.036079 3.946671
LeftArm 24.334320 37.857673 -71.168218
LeftForeArm -3.061632 0.000000 14.424504
LeftHand -10.908915 -0.000000 -3.935069
LeftHandThumb1 -26.253704 0.000000 33.147579
RightShoulder 5.670482 45.927199 -39.211295
RightArm 44.053156 0.640793 111.510631
RightForeArm 20.260022 -0.000000 105.885709
RightHand -11.845518 -0.000000 -4.791901
RightHandThumb1 -24.326973 -0.000000 -32.862282
LeftUpLeg -1.892352 -10.129910 -2.345259
LeftLeg 2.914968 -0.000000 -0.000000
LeftFoot -15.323064 10.305608 -23.549086
LeftToeBase 8.232148 -0.000000 -0.000000
RightUpLeg 6.478641 -13.031194 -5.253780
RightLeg -3.661184 -0.000000 0.000000
RightFoot -19.874088 -20.636779 12.470264
RightToeBase 5.400076 -0.000000 -0.000000
393
root -1.195022 31.775414 -5.651642 6.476243 23.073756 6.309975
Spine -7.440399 1.995850 -2.203358
Head 5.283513 -18.580220 8.522554
LeftShoulder -8.694283 17.022495 3.950385
LeftArm 24.328398 37.870003 -71.167349
LeftForeArm -3.114218 -0.000000 14.408088
LeftHand -10.832051 0.000000 -4.024580
LeftHandThumb1 -26.253704 0.000000 33.147579
RightShoulder 5.691818 45.816249 -39.212985
RightArm 44.092884 0.576407 111.480439
RightForeArm 20.236384 -0.000000 105.931596
RightHand -11.816683 -0.000000 -4.712238
RightHandThumb1 -24.326973 -0.000000 -32.862282
LeftUpLeg -1.888360 -10.115013 -2.337705
LeftLeg 2.902435 -0.000000 -0.000000
LeftFoot -15.358276 10.276589 -23.713206
LeftToeBase 8.307822 -0.000000 -0.000000
RightUpLeg 6.469666 -13.013471 -5.249387
RightLeg -3.664499 -0.000000 0.000000
RightFoot -19.859976 -20.625091 12.439395
RightToeBase 5.370185 -0.000000 -0.000000
394
root -1.196633 31.774999 -5.649870 6.467302 23.028222 6.300412
Spine -7.445958 1.998347 -2.196156
Head 5.321486 -18.564341 8.478692
LeftShoulder -8.700941 17.043549 3.944473
LeftArm 24.339517 37.853607 -71.160033
LeftForeArm -3.102808 0.000000 14.408606
LeftHand -10.897835 0.000000 -3.986297
LeftHandThumb1 -26.253704 0.000000 33.147579
RightShoulder 5.724006 45.758638 -39.185205
RightArm 44.096927 0.508525 111.426048
RightForeArm 20.194846 -0.000000 105.938195
RightHand -11.783158 0.000000 -4.727930
RightHandThumb1 -24.326973 -0.000000 -32.862282
LeftUpLeg -1.878871 -10.104091 -2.335318
LeftLeg 2.913493 -0.000000 -0.000000
LeftFoot -15.404354 10.312212 -23.742874
LeftToeBase 8.365100 -0.000000 -0.000000
RightUpLeg 6.466628 -13.025166 -5.246410
RightLeg -3.661808 -0.000000 0.000000
RightFoot -19.859095 -20.562162 12.428965
RightToeBase 5.433744 -0.000000 -0.000000
395
root -1.199172 31.774869 -5.646165 6.460808 22.949242 6.291190
Spine -7.457670 2.040589 -2.205612
Head 5.350900 -18.566479 8.455655
LeftShoulder -8.702264 17.047825 3.948737
LeftArm 24.342459 37.850811 -71.153206
LeftForeArm -3.098546 -0.000000 14.399936
LeftHand -10.921861 -0.000000 -3.963453
LeftHandThumb1 -26.253704 0.000000 33.147579
RightShoulder 5.731690 45.704666 -39.153538
RightArm 44.092295 0.437622 111.378471
RightForeArm 20.180638 -0.000000 105.951368
RightHand -11.816875 0.000000 -4.739715
RightHandThumb1 -24.326973 -0.000000 -32.862282
LeftUpLeg -1.851683 -10.079721 -2.328149
LeftLeg 2.878634 -0.000000 -0.000000
LeftFoot -15.416172 10.354350 -23.755883
LeftToeBase 8.434093 -0.000000 -0.000000
RightUpLeg 6.470530 -12.944706 -5.237723
RightLeg -3.691074 -0.000000 0.000000
RightFoot -19.834938 -20.568002 12.418677
RightToeBase 5.416324 -0.000000 -0.000000
396
root -1.202727 31.774371 -5.644616 6.453233 22.895301 6.277924
Spine -7.459743 2.042800 -2.202098
Head 5.369205 -18.541930 8.420375
LeftShoulder -8.702716 17.044232 3.947865
LeftArm 24.327972 37.828188 -71.158473
LeftForeArm -3.079343 -0.000000 14.409947
LeftHand -10.977976 -0.000000 -3.980073
LeftHandThumb1 -26.253704 0.000000 33.147579
RightShoulder 5.751411 45.679457 -39.123863
RightArm 44.077808 0.390215 111.340801
RightForeArm 20.191894 0.000000 105.950826
RightHand -11.827635 -0.000000 -4.745000
RightHandThumb1 -24.326973 -0.000000 -32.862282
LeftUpLeg -1.843607 -10.060815 -2.313227
LeftLeg 2.872201 -0.000000 -0.000000
LeftFoot -15.431843 10.363384 -23.766976
LeftToeBase 8.365009 -0.000000 -0.000000
RightUpLeg 6.463494 -12.948032 -5.227089
RightLeg -3.693904 -0.000000 0.000000
RightFoot -19.816117 -20.520884 12.390722
RightToeBase 5.403171 -0.000000 -0.000000
397
root -1.206202 31.774115 -5.646003 6.448926 22.846668 6.267745
Spine -7.450164 2.035075 -2.198774
Head 5.370461 -18.493795 8.387318
LeftShoulder -8.704021 17.040574 3.941653
LeftArm 24.334251 37.808746 -71.151304
LeftForeArm -3.062956 -0.000000 14.421774
LeftHand -10.966925 -0.000000 -4.020777
LeftHandThumb1 -26.253704 0.000000 33.147579
RightShoulder 5.749956 45.628270 -39.096713
RightArm 44.099688 0.316779 111.275398
RightForeArm 20.160801 -0.000000 105.939967
RightHand -11.843925 -0.000000 -4.714080
RightHandThumb1 -24.326973 -0.000000 -32.862282
LeftUpLeg -1.849438 -10.051874 -2.306415
LeftLeg 2.887693 -0.000000 -0.000000
LeftFoot -15.459602 10.413104 -23.737527
LeftToeBase 8.368988 -0.000000 -0.000000
RightUpLeg 6.451172 -12.960751 -5.221577
RightLeg -3.696975 -0.000000 0.000000
RightFoot -19.794397 -20.462412 12.365340
RightToeBase 5.376579 -0.000000 -0.000000
